<?xml version="1.0" encoding="utf-8"?>
<!-- Generator: Adobe Illustrator 25.0.0, SVG Export Plug-In . SVG Version: 6.00 Build 0)  -->
<svg version="1.1" id="Layer_1" xmlns="http://www.w3.org/2000/svg" xmlns:xlink="http://www.w3.org/1999/xlink" x="0px" y="0px"
	 viewBox="0 0 944 936" style="enable-background:new 0 0 944 936;" xml:space="preserve">
<style type="text/css">
	.st0{display:none;}
	.st1{display:inline;}
	.st2{fill:#CC7F7F;}
	.st3{fill:#252525;}
	.st4{fill:#FFFFFF;}
</style>
<g id="Layer_1_1_" class="st0">
	<g class="st1">
		<circle class="st2" cx="228.5" cy="418.5" r="83"/>
		<path class="st3" d="M228.5,340c43.3,0,78.5,35.2,78.5,78.5S271.8,497,228.5,497S150,461.8,150,418.5S185.2,340,228.5,340
			 M228.5,331c-48.3,0-87.5,39.2-87.5,87.5s39.2,87.5,87.5,87.5s87.5-39.2,87.5-87.5S276.8,331,228.5,331L228.5,331z"/>
	</g>
	<g class="st1">
		<circle class="st2" cx="467.5" cy="227.5" r="83"/>
		<path class="st3" d="M467.5,149c43.3,0,78.5,35.2,78.5,78.5S510.8,306,467.5,306S389,270.8,389,227.5S424.2,149,467.5,149
			 M467.5,140c-48.3,0-87.5,39.2-87.5,87.5s39.2,87.5,87.5,87.5s87.5-39.2,87.5-87.5S515.8,140,467.5,140L467.5,140z"/>
	</g>
	<g class="st1">
		<circle class="st2" cx="764.5" cy="156.5" r="83"/>
		<path class="st3" d="M764.5,78c43.3,0,78.5,35.2,78.5,78.5S807.8,235,764.5,235S686,199.8,686,156.5S721.2,78,764.5,78 M764.5,69
			c-48.3,0-87.5,39.2-87.5,87.5s39.2,87.5,87.5,87.5s87.5-39.2,87.5-87.5S812.8,69,764.5,69L764.5,69z"/>
	</g>
	<g class="st1">
		<circle class="st2" cx="1061.5" cy="227.5" r="83"/>
		<path class="st3" d="M1061.5,149c43.3,0,78.5,35.2,78.5,78.5s-35.2,78.5-78.5,78.5S983,270.8,983,227.5S1018.2,149,1061.5,149
			 M1061.5,140c-48.3,0-87.5,39.2-87.5,87.5s39.2,87.5,87.5,87.5c48.3,0,87.5-39.2,87.5-87.5S1109.8,140,1061.5,140L1061.5,140z"/>
	</g>
	<g class="st1">
		<circle class="st2" cx="1297.5" cy="418.5" r="83"/>
		<path class="st3" d="M1297.5,340c43.3,0,78.5,35.2,78.5,78.5s-35.2,78.5-78.5,78.5s-78.5-35.2-78.5-78.5S1254.2,340,1297.5,340
			 M1297.5,331c-48.3,0-87.5,39.2-87.5,87.5s39.2,87.5,87.5,87.5s87.5-39.2,87.5-87.5S1345.8,331,1297.5,331L1297.5,331z"/>
	</g>
	<g class="st1">
		<path class="st2" d="M764.5,1432.5c-78.3,0-154.3-15.3-225.8-45.6c-69.1-29.2-131.1-71-184.4-124.3s-95.1-115.3-124.3-184.4
			c-30.2-71.5-45.6-147.5-45.6-225.8s15.3-154.3,45.6-225.8c29.2-69.1,71-131.1,124.3-184.4s115.3-95.1,184.4-124.3
			c71.5-30.2,147.5-45.6,225.8-45.6s154.3,15.3,225.8,45.6c69.1,29.2,131.1,71,184.4,124.3s95.1,115.3,124.3,184.4
			c30.2,71.5,45.6,147.5,45.6,225.8s-15.3,154.3-45.6,225.8c-29.2,69.1-71,131.1-124.3,184.4s-115.3,95.1-184.4,124.3
			C918.8,1417.2,842.8,1432.5,764.5,1432.5z"/>
		<path class="st3" d="M764.5,277c77.7,0,153.1,15.2,224,45.2c34.1,14.4,67,32.3,97.8,53.1c30.5,20.6,59.1,44.2,85.2,70.3
			c26,26,49.7,54.7,70.3,85.2c20.8,30.8,38.6,63.7,53.1,97.8c30,71,45.2,146.3,45.2,224s-15.2,153.1-45.2,224
			c-14.4,34.1-32.3,67-53.1,97.8c-20.6,30.5-44.2,59.1-70.3,85.2c-26,26-54.7,49.7-85.2,70.3c-30.8,20.8-63.7,38.6-97.8,53.1
			c-70.9,30-146.3,45.2-224,45.2s-153.1-15.2-224-45.2c-34.1-14.4-67-32.3-97.8-53.1c-30.5-20.6-59.1-44.2-85.2-70.3
			c-26-26-49.7-54.7-70.3-85.2c-20.8-30.8-38.6-63.7-53.1-97.8c-30-70.9-45.2-146.3-45.2-224s15.2-153.1,45.2-224
			c14.4-34.1,32.3-67,53.1-97.8c20.6-30.5,44.2-59.1,70.3-85.2s54.7-49.7,85.2-70.3c30.8-20.8,63.6-38.6,97.8-53.1
			C611.4,292.2,686.8,277,764.5,277 M764.5,268C441.7,268,180,529.7,180,852.5S441.7,1437,764.5,1437S1349,1175.3,1349,852.5
			S1087.3,268,764.5,268L764.5,268z"/>
	</g>
	<g class="st1">
		<circle class="st2" cx="92.5" cy="692.5" r="83"/>
		<path class="st3" d="M92.5,614c43.3,0,78.5,35.2,78.5,78.5S135.8,771,92.5,771S14,735.8,14,692.5S49.2,614,92.5,614 M92.5,605
			C44.2,605,5,644.2,5,692.5S44.2,780,92.5,780s87.5-39.2,87.5-87.5S140.8,605,92.5,605L92.5,605z"/>
	</g>
	<g class="st1">
		<circle class="st2" cx="1445.5" cy="692.5" r="83"/>
		<path class="st3" d="M1445.5,614c43.3,0,78.5,35.2,78.5,78.5s-35.2,78.5-78.5,78.5s-78.5-35.2-78.5-78.5S1402.2,614,1445.5,614
			 M1445.5,605c-48.3,0-87.5,39.2-87.5,87.5s39.2,87.5,87.5,87.5s87.5-39.2,87.5-87.5S1493.8,605,1445.5,605L1445.5,605z"/>
	</g>
</g>
<g id="Layer_2_1_">
	<g>
		<circle class="st2" cx="471" cy="467" r="459"/>
	</g>
	<g>
		<circle class="st4" cx="472" cy="467.5" r="318.5"/>
	</g>
	<path class="st4" d="M471,149c-0.7-44-0.3-97-1-141c-41-8-369,18-427,99C0,510-11,661.6,30,668c7,1.1,211.4,267.4,240,252
		c233,50,433.3-12.2,545-128c152-157.5,129.2-287.9,122.6-295.2c-11.1-12.3-216.1,0.4-232.7-6.5C653,465.1,438,150,471,149z"/>
</g>
<g id="Layer_3">
</g>
</svg>
