<?xml version="1.0" encoding="utf-8"?>
<!-- Generator: Adobe Illustrator 25.0.0, SVG Export Plug-In . SVG Version: 6.00 Build 0)  -->
<svg version="1.1" xmlns="http://www.w3.org/2000/svg" xmlns:xlink="http://www.w3.org/1999/xlink" x="0px" y="0px"
	 viewBox="0 0 944 936" style="enable-background:new 0 0 944 936;" xml:space="preserve">
<style type="text/css">
	.st0{display:none;}
	.st1{display:inline;}
	.st2{fill:#CC7F7F;}
	.st3{fill:#252525;}
	.st4{display:inline;fill:#CC7F7F;}
	.st5{display:inline;fill:#252525;}
	.st6{fill:#FFFFFF;}
</style>
<g id="Layer_1" class="st0">
	<g class="st1">
		<circle class="st2" cx="228.5" cy="418.5" r="83"/>
		<path class="st3" d="M228.5,340c43.29,0,78.5,35.21,78.5,78.5S271.79,497,228.5,497S150,461.79,150,418.5S185.21,340,228.5,340
			 M228.5,331c-48.32,0-87.5,39.18-87.5,87.5s39.18,87.5,87.5,87.5s87.5-39.18,87.5-87.5S276.82,331,228.5,331L228.5,331z"/>
	</g>
	<g class="st1">
		<circle class="st2" cx="467.5" cy="227.5" r="83"/>
		<path class="st3" d="M467.5,149c43.29,0,78.5,35.21,78.5,78.5c0,43.29-35.21,78.5-78.5,78.5c-43.29,0-78.5-35.21-78.5-78.5
			C389,184.21,424.21,149,467.5,149 M467.5,140c-48.32,0-87.5,39.18-87.5,87.5c0,48.32,39.18,87.5,87.5,87.5
			c48.32,0,87.5-39.18,87.5-87.5C555,179.18,515.82,140,467.5,140L467.5,140z"/>
	</g>
	<g class="st1">
		<circle class="st2" cx="764.5" cy="156.5" r="83"/>
		<path class="st3" d="M764.5,78c43.29,0,78.5,35.21,78.5,78.5c0,43.29-35.21,78.5-78.5,78.5c-43.29,0-78.5-35.21-78.5-78.5
			C686,113.21,721.21,78,764.5,78 M764.5,69c-48.32,0-87.5,39.18-87.5,87.5c0,48.32,39.18,87.5,87.5,87.5
			c48.32,0,87.5-39.18,87.5-87.5C852,108.18,812.82,69,764.5,69L764.5,69z"/>
	</g>
	<g class="st1">
		<circle class="st2" cx="1061.5" cy="227.5" r="83"/>
		<path class="st3" d="M1061.5,149c43.29,0,78.5,35.21,78.5,78.5c0,43.29-35.21,78.5-78.5,78.5S983,270.79,983,227.5
			C983,184.21,1018.21,149,1061.5,149 M1061.5,140c-48.32,0-87.5,39.18-87.5,87.5c0,48.32,39.18,87.5,87.5,87.5
			c48.32,0,87.5-39.18,87.5-87.5C1149,179.18,1109.82,140,1061.5,140L1061.5,140z"/>
	</g>
	<g class="st1">
		<circle class="st2" cx="1297.5" cy="418.5" r="83"/>
		<path class="st3" d="M1297.5,340c43.29,0,78.5,35.21,78.5,78.5c0,43.29-35.21,78.5-78.5,78.5s-78.5-35.21-78.5-78.5
			C1219,375.21,1254.21,340,1297.5,340 M1297.5,331c-48.32,0-87.5,39.18-87.5,87.5c0,48.32,39.18,87.5,87.5,87.5
			s87.5-39.18,87.5-87.5C1385,370.18,1345.82,331,1297.5,331L1297.5,331z"/>
	</g>
	<g>
		<path class="st4" d="M764.5,1432.5c-78.3,0-154.26-15.33-225.76-45.58c-69.07-29.21-131.09-71.03-184.36-124.3
			s-95.09-115.3-124.3-184.36c-30.24-71.5-45.58-147.46-45.58-225.76s15.33-154.26,45.58-225.76
			c29.21-69.07,71.03-131.09,124.3-184.36s115.3-95.09,184.36-124.3c71.5-30.24,147.46-45.58,225.76-45.58
			s154.26,15.33,225.76,45.58c69.07,29.21,131.09,71.03,184.36,124.3s95.09,115.3,124.3,184.36
			c30.24,71.5,45.58,147.46,45.58,225.76s-15.33,154.26-45.58,225.76c-29.21,69.07-71.03,131.09-124.3,184.36
			s-115.3,95.09-184.36,124.3C918.76,1417.17,842.8,1432.5,764.5,1432.5z"/>
		<path class="st5" d="M764.5,277c77.7,0,153.06,15.21,224.01,45.22c34.1,14.42,66.99,32.27,97.75,53.06
			c30.48,20.59,59.13,44.23,85.18,70.28c26.04,26.04,49.69,54.7,70.28,85.18c20.78,30.77,38.64,63.65,53.06,97.75
			C1324.79,699.44,1340,774.8,1340,852.5s-15.21,153.06-45.22,224.01c-14.42,34.1-32.27,66.99-53.06,97.75
			c-20.59,30.48-44.23,59.13-70.28,85.18c-26.04,26.04-54.7,49.69-85.18,70.28c-30.77,20.78-63.65,38.64-97.75,53.06
			C917.56,1412.79,842.2,1428,764.5,1428s-153.06-15.21-224.01-45.22c-34.1-14.42-66.99-32.27-97.75-53.06
			c-30.48-20.59-59.13-44.23-85.18-70.28c-26.04-26.04-49.69-54.7-70.28-85.18c-20.78-30.77-38.64-63.65-53.06-97.75
			C204.21,1005.56,189,930.2,189,852.5s15.21-153.06,45.22-224.01c14.42-34.1,32.27-66.99,53.06-97.75
			c20.59-30.48,44.23-59.13,70.28-85.18s54.7-49.69,85.18-70.28c30.77-20.78,63.65-38.64,97.75-53.06
			C611.44,292.21,686.8,277,764.5,277 M764.5,268C441.69,268,180,529.69,180,852.5S441.69,1437,764.5,1437S1349,1175.31,1349,852.5
			S1087.31,268,764.5,268L764.5,268z"/>
	</g>
	<g class="st1">
		<circle class="st2" cx="92.5" cy="692.5" r="83"/>
		<path class="st3" d="M92.5,614c43.29,0,78.5,35.21,78.5,78.5c0,43.29-35.21,78.5-78.5,78.5C49.21,771,14,735.79,14,692.5
			C14,649.21,49.21,614,92.5,614 M92.5,605C44.18,605,5,644.18,5,692.5C5,740.82,44.18,780,92.5,780c48.32,0,87.5-39.18,87.5-87.5
			C180,644.18,140.82,605,92.5,605L92.5,605z"/>
	</g>
	<g class="st1">
		<circle class="st2" cx="1445.5" cy="692.5" r="83"/>
		<path class="st3" d="M1445.5,614c43.29,0,78.5,35.21,78.5,78.5c0,43.29-35.21,78.5-78.5,78.5s-78.5-35.21-78.5-78.5
			C1367,649.21,1402.21,614,1445.5,614 M1445.5,605c-48.32,0-87.5,39.18-87.5,87.5c0,48.32,39.18,87.5,87.5,87.5
			s87.5-39.18,87.5-87.5C1533,644.18,1493.82,605,1445.5,605L1445.5,605z"/>
	</g>
</g>
<g id="Layer_2">
	<g>
		<circle class="st2" cx="471" cy="467" r="459"/>
	</g>
	<g>
		<circle class="st6" cx="471.5" cy="467.5" r="318.5"/>
	</g>
	<path class="st6" d="M471,149c-0.67-44-0.33-97-1-141c-39-1-92,7-129,18c11,42,32.5,92.5,42.5,135.5C417,154,438,150,471,149z"/>
</g>
<g id="Layer_3">
</g>
</svg>
