<svg width="647" height="554" viewBox="0 0 647 554" fill="none" xmlns="http://www.w3.org/2000/svg">
<path d="M71.7818 295.423C47.3213 227.092 25.9918 163.664 68.9306 105.077C101.845 60.1668 167.615 22.0296 221.975 9.81009C286.002 -4.58224 373.233 0.696327 465.623 55.7815C544.983 103.098 619.037 155.437 638.624 245.658C657.903 334.459 641.938 406.847 583.287 476.368C524.636 545.89 386.366 585.196 274.222 522.756C182.922 471.921 96.2423 363.755 71.7818 295.423Z" fill="#F4CECE"/>
<path d="M196.454 80.4503C240.766 72.9964 281.748 66.9147 312.775 99.418C336.558 124.333 352.632 168.507 354.153 202.917C355.945 243.447 343.219 295.959 299.576 346.193C262.087 389.342 222.115 428.716 164.994 430.824C108.771 432.898 66.3939 415.309 30.4165 372.054C-5.56093 328.8 -14.4444 240.379 35.8354 178.923C76.7698 128.89 152.143 87.9041 196.454 80.4503Z" fill="#EAB5B5"/>
<path d="M321.291 3.91878C355.72 12.3377 387.308 20.7122 399.65 53.9371C409.111 79.4054 406.98 116.422 397.351 141.827C386.01 171.75 360.413 205.827 313.127 228.61C272.51 248.181 231.271 264.242 189.229 247.955C147.848 231.924 122.631 205.964 110.055 163.406C97.4782 120.848 118.618 54.0161 174.211 25.1715C219.472 1.68813 286.862 -4.50014 321.291 3.91878Z" fill="#DB9797"/>
<path d="M457.882 503.874C424.23 509.755 393.104 514.575 369.362 489.981C351.162 471.128 338.732 437.58 337.411 411.395C335.855 380.554 345.28 340.525 378.219 302.085C406.514 269.066 436.713 238.909 480.128 237.038C522.861 235.196 555.161 248.386 582.718 281.141C610.275 313.896 617.451 381.157 579.519 428.169C548.638 466.444 491.533 497.993 457.882 503.874Z" fill="#CC7F7F"/>
</svg>
