<svg width="575" height="579" viewBox="0 0 575 579" fill="none" xmlns="http://www.w3.org/2000/svg">
<path d="M45.5113 297.759C21.1385 226.346 -0.219116 160.096 37.7056 100.606C66.7767 55.0046 126.271 17.3095 175.97 6.13791C234.506 -7.02028 314.935 0.819454 401.467 60.3667C475.796 111.516 545.378 167.722 565.861 261.664C586.022 354.129 573.299 428.641 521.211 499.024C469.123 569.406 342.933 606.338 238.02 538.638C152.606 483.521 69.8841 369.171 45.5113 297.759Z" fill="#F4CECE"/>
<path d="M296.953 88.281C352.805 88.7308 404.241 90.2971 433.166 144.05C455.339 185.254 462.946 251.823 455.507 300.948C446.745 358.807 417.109 430.035 350.522 490.353C293.326 542.165 234.132 588.012 164.159 576.806C95.2863 565.776 48.5439 530.331 16.5049 460.118C-15.534 389.905 -2.46191 262.44 75.2172 187.873C138.458 127.166 241.101 87.8311 296.953 88.281Z" fill="#EAB5B5"/>
</svg>
