<?xml version="1.0" encoding="utf-8"?>
<!-- Generator: Adobe Illustrator 25.0.0, SVG Export Plug-In . SVG Version: 6.00 Build 0)  -->
<svg version="1.1" id="Layer_1" xmlns="http://www.w3.org/2000/svg" xmlns:xlink="http://www.w3.org/1999/xlink" x="0px" y="0px"
	 viewBox="0 0 1920 1080" style="enable-background:new 0 0 1920 1080;" xml:space="preserve">
<style type="text/css">
	.st0{fill:#F7F3E2;}
	.st1{fill:#F2E8CC;}
	.st2{fill:#E2D5B5;}
	.st3{fill:url(#SVGID_1_);}
</style>
<path class="st0" d="M0,666.06c98.04-2.97,258.94,24.89,335-3.06c166-61,173.31-4.92,346,7c119,8.22,167-61.34,439-16
	c153.37,25.56,196.53,49.08,271,34c92.39-18.71,165-41,252-19.83c96.47,23.48,132.17-86.97,277-39.17c0-218.88,0-392.12,0-611
	C1280,18,640,18,0,18C0,238.45,0,445.61,0,666.06z"/>
<path class="st1" d="M0,614c75.25,81.3,251,39,317-1.33c152.51-93.19,197.57,52.15,366,14.33c118-26.5,146.44-131.62,439-8
	c142,60,193.53,56.28,268,42c92.39-17.72,164.15-67.21,253-45c96,24,132.17-83.29,277-38c0-207.37,0-370.63,0-578C1280,0,640,0,0,0
	C0,208.87,0,405.13,0,614z"/>
<path class="st2" d="M0,595.23c75.25,77.23,175.73-1.07,317-13.23c178-15.32,190.57,26.93,359-9c118-25.17,135.32-53.91,441,28
	c141.07,37.8,183.53,11.57,258-2c92.39-16.84,201.85,12.93,291-7c74.31-16.61,109.17-61.02,254-18c0-196.99,0-377.01,0-574
	C1280,0,640,0,0,0C0,198.41,0,396.82,0,595.23z"/>
<linearGradient id="SVGID_1_" gradientUnits="userSpaceOnUse" x1="956.9373" y1="620.2725" x2="960.3759" y2="-29.5968">
	<stop  offset="0" style="stop-color:#CCBEA2;stop-opacity:0.5"/>
	<stop  offset="0.9993" style="stop-color:#DBC7A1"/>
</linearGradient>
<path class="st3" d="M-5,515c75.25,70.57,180.73,78.11,322,67c178-14,182.57-41.17,351-74c118-23,109.32-24.84,415,50
	c141.07,34.54,238.47,34.27,312.94,21.87c92.39-15.38,105.91-37.65,195.06-55.87c74.31-15.18,184.17-23.31,329,16c0-180,0-360,0-540
	C1280,0,640,0,0,0C0,181.3-5,333.7-5,515z"/>
</svg>
